<svg xmlns="http://www.w3.org/2000/svg" xmlns:xlink="http://www.w3.org/1999/xlink" id="Layer_1" x="0px" y="0px" width="1160px" height="890px" viewBox="0 0 1160 890" xml:space="preserve"> <g> <g> <path fill="#B9CFEF" d="M574.92,13.876c-374.639,0-515.527,278.918-515.527,498.006s90.961,333.455,339.916,333.455 c248.959,0,361.137,0,447.75,0c163.24,0,265.844-89.83,265.844-256.043c0-226.369-102.35-229.666-175.057-328.934 C865.137,161.093,835.582,13.876,574.92,13.876z"/> <path fill="#B9CFEF" d="M941.762,36.036c-79.813-10.371-25.625,182.855,75.574,241.285 C1118.537,335.747,1124.447,59.782,941.762,36.036z"/> </g> <g> <g> <polygon fill="#FF9E80" points="1089.135,664.462 1113.839,664.462 1112.328,692.054 1093.443,692.054 "/> <polygon fill="#FF9E80" points="1035.557,664.462 1060.261,664.462 1058.75,692.054 1039.865,692.054 "/> <path fill="#244677" d="M1040.598,692.054c0,0-18.957,12.311-25.404,14.266c-6.451,1.953-9.77,1.563-9.77,7.229h38.916 l3.479-2.594l3.916,2.594h12.898c0,0-0.115-11.883-5.662-21.494H1040.598z"/> <path fill="#244677" d="M1094.008,692.054c0,0-18.957,12.311-25.404,14.266c-6.451,1.953-9.771,1.563-9.771,7.229h38.914 l3.48-2.594l3.918,2.594h12.9c0,0-0.119-11.883-5.67-21.494H1094.008z"/> <g> <rect x="1013.828" y="368.819" fill="#2885A5" width="86.988" height="10.748"/> <path fill="#3E5E9E" d="M1019.688,374.194l-5.859,5.373c0,0-6.369,11.236-6.369,26.773c0-2.396-1.771-10.697,13.311,281.346 h44.387l-3.441-257.6h3.004l11.898,257.6h40.58c-4.084-258.078-2.951-249.734-2.951-258.332c0-26.529,3.221-38.512-13.43-55.16 H1019.688z"/> </g> <g> <path fill="#FF6E40" d="M945.293,224.31c0,0-2.373-4.447-5.203-4.656c-2.828-0.209-4.213,1.826-4.213,1.826 s-5.217,3.59-5.949,5.523c0,0-2.178,1.533-2.377,4.242s3.248,5.834,3.248,5.834s-1.867,7.326,2.434,8.92 s10.119-1.217,10.119-1.217L945.293,224.31z"/> <path fill="#FF9E80" d="M968,327.618c7.275-3.047,21.936-9.219,43.771-20.223c21.83-11.008,25.99-17.402,22.119-27.844 c-7.563-20.404-30.201-7.232-39.635-2.131c-9.428,5.102-37.998,22.93-37.998,22.93c-9.639,5.385-15.613,14.068-11.395,23.311 C949.084,332.901,962.023,330.118,968,327.618z"/> <path fill="#FF9E80" d="M943.854,318.278c-2.029-13.809-10.688-72.721-10.688-72.721l10.629-2.729l24.518,66.139 L943.854,318.278z"/> <path fill="#CAF5FF" d="M1032.699,297.022c-1.818,2.6-4.242,4.822-7.211,6.457l-48.959,23.334l-11.963-34.059l40.404-26.678 c10.324-5.664,23.289-1.887,28.953,8.443C1037.963,281.88,1037.207,290.579,1032.699,297.022z"/> <path fill="#FF9E80" d="M943.027,247.925l0.768-5.096c0,0,4.459-13.736,4.73-17.396c0.27-3.66-2.713-11.555-3.514-13.219 c-0.803-1.662-3.227,0.791-2.635,3.781c0.588,2.986,1.23,7.234,1.23,7.234l-1.16,5.73c0,0-3.889-4.191-5.207-4.289 c-1.318-0.096-4.393-0.324-5.711-0.422s-0.609,2.018,1.092,3.174c1.699,1.156,3.84,1.846,3.84,1.846s-2.822,7.438-1.234,10.717 c1.582,3.277,4.32,6.283,4.32,6.283L943.027,247.925z"/> </g> <path fill="#FF9E80" d="M1069.281,270.864l-28.318-1.332c0.326-2.266,0.998-6.344,1.699-10.588 c1.227-7.348,2.582-15.217,2.582-15.217l23.455-3.393l0.166,8.906L1069.281,270.864z"/> <path fill="#FF6E40" d="M1068.865,249.241c-2.703,4.898-8.711,10.822-21.912,10.201c-1.564-0.076-2.992-0.242-4.291-0.498 c1.227-7.348,2.582-15.217,2.582-15.217l23.455-3.393L1068.865,249.241z"/> <path fill="#244677" d="M1040.092,196.956c0,0-12.643,11.699-4.932,22.682l15.559-17.131L1040.092,196.956z"/> <path fill="#FF9E80" d="M1078.164,237.103c-3.633,12.854-20.143,16.047-32.998,12.41l0,0 c-12.854-3.633-17.191-12.721-13.555-25.576l3.611-12.768c3.637-12.854,17-20.328,29.855-16.693l0,0 c12.859,3.637,20.332,17.002,16.697,29.857L1078.164,237.103z"/> <path fill="#244677" d="M1078.773,244.698c0,0,7.451-7.229,10.174-16.852c2.723-9.625,3.434-30.529-23.965-38.277 c-15.32-4.33-25.674-1.852-27.701,5.318c-1.502,5.301-1.484,10.504,8.334,13.281c9.824,2.777,21.486,0.301,23.32,7.551 c1.836,7.25-1.73,12.129-3.926,19.889c-2.195,7.758-0.385,13.361,3.25,14.391 C1071.895,251.024,1075.555,248.388,1078.773,244.698z"/> <path fill="#FF9E80" d="M1075.484,231.948c-0.861,3.037-7.203,6.584-10.24,5.725c-3.039-0.859-1.619-5.797-0.758-8.834 c0.855-3.039,4.016-4.803,7.053-3.943C1074.578,225.755,1076.342,228.911,1075.484,231.948z"/> <path fill="#CAF5FF" d="M1114.939,280.64c-0.318,4.766-1.141,14.473-2.105,25.402c-1.877,21.264-4.242,47.125-4.242,50.051 c0,4.43,3.875,17.727-5.727,17.727h-71.463c-16.619,0-19.576-3.51-20.686-10.896c-1.107-7.383-5.17-76.633-5.17-84.939 c0-8.314,4.063-14.592,12.928-14.592s51.891,0,51.891,0s21.232,0,30.283,0S1115.863,266.604,1114.939,280.64z"/> <path fill="#9DDCED" d="M1108.592,356.093c0,4.43,3.875,17.727-5.727,17.727h-17.943c5.729-28.414,0-77.498,0-77.498 l27.912,9.721C1110.957,327.306,1108.592,353.167,1108.592,356.093z"/> <polygon fill="#9DDCED" points="1072.172,263.392 1069.123,257.661 1053.447,257.661 1050.738,263.392 1048.391,257.661 1042.854,257.661 1040.738,263.392 1048.674,267.974 1050.738,264.411 1054.109,267.974 "/> <path fill="#244677" d="M1061.715,430.087h-18.861c0,0,1.613,37.582,4.096,49.83c6.09,30.049,16.273,43.678,16.273,43.678 L1061.715,430.087z"/> <path fill="#3E5E9E" d="M1024.465,287.726h57.521c0,0-1.414,31.955,13.066,40.1s16.461,0.738,16.461,0.738l-1.695,25.225 c0,0,3.605,11.969,0.902,16.65c-2.703,4.684-7.004,9.129-7.004,9.129h-89.889l-1.523-9.129c0,0-3.832-3.301-4.857-11.447 c-1.023-8.145-1.9-31.676-1.9-31.676S1006.137,304.022,1024.465,287.726z"/> <path fill="#3E5E9E" d="M1037.359,262.819h-8.482c0,0-5.6,11.555-5.6,28.184h9.162 C1032.439,291.003,1030.592,275.388,1037.359,262.819z"/> <path fill="#3E5E9E" d="M1086.256,262.819h-8.484c0,0-5.6,11.555-5.6,28.184h9.162 C1081.334,291.003,1079.486,275.388,1086.256,262.819z"/> <path fill="#9DDCED" d="M967.199,288.333c3.686-1.326,7.746,0.582,9.076,4.264l9.807,27.168c1.328,3.682-0.58,7.746-4.264,9.076 l0,0c-3.682,1.328-7.744-0.58-9.072-4.262l-9.807-27.168C961.609,293.728,963.518,289.663,967.199,288.333L967.199,288.333z"/> <path fill="#244677" d="M1067.734,307.747v20.59c0,4.496-3.648,8.143-8.145,8.143h-24.662c-4.498,0-8.145-3.646-8.145-8.143 v-20.59H1067.734z"/> <path fill="#FF9E80" d="M1107.889,353.981c2.02-7.623,6.063-23.008,10.645-47.021c4.582-24.021,2.047-31.217-8.59-34.512 c-20.783-6.441-24.141,19.539-25.844,30.125s-4.984,44.102-4.984,44.102c-1.604,10.924,1.637,20.951,11.537,23.24 C1100.545,372.2,1106.229,360.245,1107.889,353.981z"/> <path fill="#FF9E80" d="M1092.068,370.153c-13.654-2.887-71.916-15.201-71.916-15.201l2.205-10.424l69.461-0.547 L1092.068,370.153z"/> <path fill="#CAF5FF" d="M1076.98,338.632l5.977-57.521c1.699-11.334,12.27-19.143,23.604-17.438l0,0 c11.33,1.703,19.139,12.273,17.438,23.604l-11.656,57.445L1076.98,338.632z"/> <path fill="#9DDCED" d="M1113.807,347.329c-0.953,3.797-4.805,6.104-8.604,5.15l-28.016-7.033 c-3.795-0.953-6.1-4.803-5.148-8.602l0,0c0.955-3.797,4.807-6.102,8.602-5.15l28.016,7.033 C1112.453,339.683,1114.76,343.532,1113.807,347.329L1113.807,347.329z"/> <g> <g> <g> <path fill="#9DDCED" d="M1019.104,366.042l-0.551-0.576c-1.09-0.932-2.316-1.596-3.586-2.064l-2.625-34.072 c1.184-0.66,2.295-1.504,3.227-2.594l0.457-0.65c3.67-4.924,2.994-11.895-1.734-15.947c-1.379-1.182-2.957-1.949-4.598-2.391 l0.852,11.027c0.043,0.582-0.061,1.133-0.252,1.648c-0.514,1.389-1.785,2.439-3.363,2.564 c-1.078,0.086-2.092-0.277-2.854-0.932c-0.354-0.299-0.631-0.678-0.861-1.09c-0.262-0.482-0.455-1.008-0.496-1.592 l-0.852-11.025c-1.557,0.688-2.998,1.691-4.18,3.068c-4.055,4.729-3.648,11.723,0.732,16.025l0.547,0.57 c1.094,0.938,2.32,1.6,3.59,2.072l2.621,34.066c-1.178,0.666-2.285,1.508-3.221,2.598l-0.453,0.654 c-3.68,4.92-3,11.893,1.732,15.945c1.377,1.18,2.955,1.957,4.6,2.391l-0.85-11.029c-0.047-0.572,0.055-1.133,0.24-1.646 c0.51-1.391,1.781-2.445,3.367-2.566c1.076-0.088,2.094,0.279,2.855,0.93c0.354,0.303,0.635,0.672,0.863,1.096 c0.264,0.479,0.457,1.006,0.494,1.584l0.852,11.027c1.561-0.688,3-1.688,4.178-3.064 C1023.887,377.335,1023.484,370.345,1019.104,366.042z"/> </g> </g> </g> <path fill="#FF9E80" d="M1024.121,345.208c0,0-9.676-5.639-12.902-7.516c-3.223-1.883-3.371-1.479-6.693-0.6 c-3.326,0.879-4.551,1.578-6.83,2.881c-2.277,1.303-0.734,3.867,1.234,3.348c0,0,0.412,5.061,0.885,6.842 c0.473,1.777,4.299,5.381,4.299,5.381s6.725,0.775,9.846,1.938c3.117,1.166,5.457-0.818,8.246-3.477L1024.121,345.208z"/> <g> <g> <polygon fill="#18677C" points="1071.691,876.124 1056,876.124 1035.557,725.987 1051.248,725.987 "/> <polygon fill="#18677C" points="1075.662,876.124 1059.973,876.124 1039.529,725.987 1055.221,725.987 "/> <path fill="#18677C" d="M1128.215,763.239c0,2.49-2.018,4.512-4.51,4.512h-72.393c-2.49,0-4.512-2.021-4.512-4.512l0,0 c0-2.492,2.021-4.514,4.512-4.514h72.393C1126.197,758.726,1128.215,760.747,1128.215,763.239L1128.215,763.239z"/> </g> <path fill="#18677C" d="M1141.105,719.769c0,3.434-2.785,6.219-6.219,6.219H994.549c-3.434,0-6.219-2.785-6.219-6.219l0,0 c0-3.436,2.785-6.221,6.219-6.221h140.338C1138.32,713.548,1141.105,716.333,1141.105,719.769L1141.105,719.769z"/> <path fill="#2885A5" d="M1141.105,719.769c0,3.434-2.785,6.219-6.219,6.219h-57.174c-3.436,0-6.221-2.785-6.221-6.219l0,0 c0-3.436,2.785-6.221,6.221-6.221h57.174C1138.32,713.548,1141.105,716.333,1141.105,719.769L1141.105,719.769z"/> <g> <polygon fill="#18677C" points="975.934,876.124 991.625,876.124 1012.068,725.987 996.377,725.987 "/> <polygon fill="#2885A5" points="980.641,876.124 996.332,876.124 1016.775,725.987 1001.086,725.987 "/> </g> <path fill="#2885A5" d="M1078.496,763.239c0,2.49-2.02,4.512-4.512,4.512h-72.393c-2.49,0-4.51-2.021-4.51-4.512l0,0 c0-2.492,2.02-4.514,4.51-4.514h72.393C1076.477,758.726,1078.496,760.747,1078.496,763.239L1078.496,763.239z"/> <path fill="#18677C" d="M1135.152,824.593c0,2.492-2.02,4.512-4.51,4.512h-72.393c-2.492,0-4.512-2.02-4.512-4.512l0,0 c0-2.49,2.02-4.512,4.512-4.512h72.393C1133.133,820.081,1135.152,822.103,1135.152,824.593L1135.152,824.593z"/> <path fill="#2885A5" d="M1071.691,824.593c0,2.492-2.021,4.512-4.512,4.512h-72.391c-2.492,0-4.514-2.02-4.514-4.512l0,0 c0-2.49,2.021-4.512,4.514-4.512h72.391C1069.67,820.081,1071.691,822.103,1071.691,824.593L1071.691,824.593z"/> <g> <polygon fill="#18677C" points="1053.604,876.124 1069.295,876.124 1089.738,725.987 1074.047,725.987 "/> <polygon fill="#2885A5" points="1058.311,876.124 1074.002,876.124 1094.445,725.987 1078.756,725.987 "/> </g> <g> <polygon fill="#18677C" points="1149.361,876.124 1133.67,876.124 1113.227,725.987 1128.918,725.987 "/> <polygon fill="#2885A5" points="1153.332,876.124 1137.643,876.124 1117.197,725.987 1132.891,725.987 "/> </g> </g> </g> <g> <rect x="644.104" y="834.866" fill="#193C5E" width="99.619" height="41.258"/> <path fill="#244677" d="M336.096,774.159c0,33.523,27.176,60.707,60.709,60.707h287.178c33.523,0,60.707-27.184,60.707-60.707 V225.452c0-33.521-27.184-60.705-60.707-60.705H396.805c-33.533,0-60.709,27.184-60.709,60.705V774.159z"/> <g> <path fill="#193C5E" d="M925.773,820.081c25.32,0,45.926-20.602,45.926-45.922V225.452c0-25.32-20.605-45.918-45.926-45.918 H638.598c-25.32,0-45.92,20.598-45.92,45.918v548.707c0,25.32,20.6,45.922,45.92,45.922H925.773z"/> <path fill="#3E5E9E" d="M638.598,194.325h287.176c17.168,0,31.135,13.963,31.135,31.127v548.707 c0,17.162-13.967,31.131-31.135,31.131H638.598c-17.17,0-31.137-13.969-31.137-31.131V225.452 C607.461,208.288,621.428,194.325,638.598,194.325 M638.598,164.747c-33.525,0-60.713,27.184-60.713,60.705v548.707 c0,33.523,27.188,60.707,60.713,60.707h287.176c33.525,0,60.705-27.184,60.705-60.707V225.452 c0-33.521-27.18-60.705-60.705-60.705H638.598L638.598,164.747z"/> </g> <rect x="569.381" y="834.866" fill="#244677" width="99.627" height="41.258"/> <rect x="818.443" y="834.866" fill="#3E5E9E" width="99.619" height="41.258"/> <rect x="395.041" y="834.866" fill="#244677" width="99.619" height="41.258"/> <g> <g> <path fill="#3E5E9E" d="M619.197,271.499c0,6.881,5.572,12.451,12.445,12.451h299.91c6.883,0,12.459-5.57,12.459-12.451v-41.51 c0-6.881-5.576-12.449-12.459-12.449h-299.91c-6.873,0-12.445,5.568-12.445,12.449V271.499z"/> <path fill="#CAF5FF" d="M871.889,250.743c0,2.148,1.74,3.893,3.889,3.893h54.479c2.15,0,3.898-1.744,3.898-3.893l0,0 c0-2.145-1.748-3.891-3.898-3.891h-54.479C873.629,246.853,871.889,248.599,871.889,250.743L871.889,250.743z"/> <path fill="#FFD54F" d="M843.865,250.743c0-5.443,4.412-9.857,9.863-9.857c5.439,0,9.854,4.414,9.854,9.857 c0,5.445-4.414,9.859-9.854,9.859C848.277,260.603,843.865,256.188,843.865,250.743z"/> <path fill="#FFD54F" d="M815.846,250.743c0-5.443,4.418-9.857,9.863-9.857c5.438,0,9.859,4.414,9.859,9.857 c0,5.445-4.422,9.859-9.859,9.859C820.264,260.603,815.846,256.188,815.846,250.743z"/> <circle fill="#B9CFEF" cx="797.687" cy="250.743" r="9.858"/> <path fill="#FFD54F" d="M759.814,250.743c0-5.443,4.408-9.857,9.85-9.857c5.445,0,9.857,4.414,9.857,9.857 c0,5.445-4.412,9.859-9.857,9.859C764.223,260.603,759.814,256.188,759.814,250.743z"/> <path fill="#CAF5FF" d="M638.914,250.743c0-5.443,4.414-9.857,9.859-9.857c5.439,0,9.854,4.414,9.854,9.857 c0,5.445-4.414,9.859-9.854,9.859C643.328,260.603,638.914,256.188,638.914,250.743z"/> </g> <g> <path fill="#3E5E9E" d="M619.197,354.519c0,6.877,5.572,12.453,12.445,12.453h299.91c6.883,0,12.459-5.576,12.459-12.453 v-41.508c0-6.877-5.576-12.451-12.459-12.451h-299.91c-6.873,0-12.445,5.574-12.445,12.451V354.519z"/> <path fill="#CAF5FF" d="M871.889,333.763c0,2.154,1.74,3.893,3.889,3.893h54.479c2.15,0,3.898-1.738,3.898-3.893l0,0 c0-2.148-1.748-3.891-3.898-3.891h-54.479C873.629,329.872,871.889,331.614,871.889,333.763L871.889,333.763z"/> <path fill="#FFD54F" d="M843.865,333.763c0-5.443,4.412-9.861,9.863-9.861c5.439,0,9.854,4.418,9.854,9.861 c0,5.447-4.414,9.859-9.854,9.859C848.277,343.622,843.865,339.21,843.865,333.763z"/> <path fill="#FFD54F" d="M815.846,333.763c0-5.443,4.418-9.861,9.863-9.861c5.438,0,9.859,4.418,9.859,9.861 c0,5.447-4.422,9.859-9.859,9.859C820.264,343.622,815.846,339.21,815.846,333.763z"/> <path fill="#B9CFEF" d="M787.828,333.763c0-5.443,4.414-9.861,9.859-9.861s9.857,4.418,9.857,9.861 c0,5.447-4.412,9.859-9.857,9.859S787.828,339.21,787.828,333.763z"/> <path fill="#FFD54F" d="M759.814,333.763c0-5.443,4.408-9.861,9.85-9.861c5.445,0,9.857,4.418,9.857,9.861 c0,5.447-4.412,9.859-9.857,9.859C764.223,343.622,759.814,339.21,759.814,333.763z"/> <path fill="#CAF5FF" d="M638.914,333.763c0-5.443,4.414-9.861,9.859-9.861c5.439,0,9.854,4.418,9.854,9.861 c0,5.447-4.414,9.859-9.854,9.859C643.328,343.622,638.914,339.21,638.914,333.763z"/> </g> <g> <path fill="#3E5E9E" d="M619.197,437.54c0,6.877,5.572,12.451,12.445,12.451h299.91c6.883,0,12.459-5.574,12.459-12.451 v-41.512c0-6.879-5.576-12.449-12.459-12.449h-299.91c-6.873,0-12.445,5.57-12.445,12.449V437.54z"/> <path fill="#CAF5FF" d="M871.889,416.784c0,2.152,1.74,3.896,3.889,3.896h54.479c2.15,0,3.898-1.744,3.898-3.896l0,0 c0-2.146-1.748-3.889-3.898-3.889h-54.479C873.629,412.896,871.889,414.638,871.889,416.784L871.889,416.784z"/> <path fill="#FFD54F" d="M843.865,416.784c0-5.443,4.412-9.857,9.863-9.857c5.439,0,9.854,4.414,9.854,9.857 c0,5.441-4.414,9.857-9.854,9.857C848.277,426.642,843.865,422.226,843.865,416.784z"/> <path fill="#FFD54F" d="M815.846,416.784c0-5.443,4.418-9.857,9.863-9.857c5.438,0,9.859,4.414,9.859,9.857 c0,5.441-4.422,9.857-9.859,9.857C820.264,426.642,815.846,422.226,815.846,416.784z"/> <circle fill="#B9CFEF" cx="797.687" cy="416.784" r="9.858"/> <path fill="#FFD54F" d="M759.814,416.784c0-5.443,4.408-9.857,9.85-9.857c5.445,0,9.857,4.414,9.857,9.857 c0,5.441-4.412,9.857-9.857,9.857C764.223,426.642,759.814,422.226,759.814,416.784z"/> <path fill="#CAF5FF" d="M638.914,416.784c0-5.443,4.414-9.857,9.859-9.857c5.439,0,9.854,4.414,9.854,9.857 c0,5.441-4.414,9.857-9.854,9.857C643.328,426.642,638.914,422.226,638.914,416.784z"/> </g> <g> <path fill="#3E5E9E" d="M619.197,520.563c0,6.873,5.572,12.451,12.445,12.451h299.91c6.883,0,12.459-5.578,12.459-12.451 V479.05c0-6.877-5.576-12.453-12.459-12.453h-299.91c-6.873,0-12.445,5.576-12.445,12.453V520.563z"/> <path fill="#CAF5FF" d="M871.889,499.802c0,2.15,1.74,3.896,3.889,3.896h54.479c2.15,0,3.898-1.746,3.898-3.896l0,0 c0-2.15-1.748-3.889-3.898-3.889h-54.479C873.629,495.913,871.889,497.651,871.889,499.802L871.889,499.802z"/> <path fill="#FFD54F" d="M843.865,499.802c0-5.439,4.412-9.857,9.863-9.857c5.439,0,9.854,4.418,9.854,9.857 c0,5.449-4.414,9.859-9.854,9.859C848.277,509.661,843.865,505.251,843.865,499.802z"/> <path fill="#FFD54F" d="M815.846,499.802c0-5.439,4.418-9.857,9.863-9.857c5.438,0,9.859,4.418,9.859,9.857 c0,5.449-4.422,9.859-9.859,9.859C820.264,509.661,815.846,505.251,815.846,499.802z"/> <path fill="#B9CFEF" d="M787.828,499.802c0-5.439,4.414-9.857,9.859-9.857s9.857,4.418,9.857,9.857 c0,5.449-4.412,9.859-9.857,9.859S787.828,505.251,787.828,499.802z"/> <path fill="#FFD54F" d="M759.814,499.802c0-5.439,4.408-9.857,9.85-9.857c5.445,0,9.857,4.418,9.857,9.857 c0,5.449-4.412,9.859-9.857,9.859C764.223,509.661,759.814,505.251,759.814,499.802z"/> <path fill="#CAF5FF" d="M638.914,499.802c0-5.439,4.414-9.857,9.859-9.857c5.439,0,9.854,4.418,9.854,9.857 c0,5.449-4.414,9.859-9.854,9.859C643.328,509.661,638.914,505.251,638.914,499.802z"/> </g> <g> <path fill="#244677" d="M619.197,603.581c0,6.879,5.572,12.455,12.445,12.455h299.91c6.883,0,12.459-5.576,12.459-12.455 v-41.512c0-6.875-5.576-12.451-12.459-12.451h-299.91c-6.873,0-12.445,5.576-12.445,12.451V603.581z"/> <path fill="#3E5E9E" d="M675.746,603.581c0,6.879,5.572,12.455,12.447,12.455h299.908c6.883,0,12.461-5.576,12.461-12.455 v-41.512c0-6.875-5.578-12.451-12.461-12.451H688.193c-6.875,0-12.447,5.576-12.447,12.451V603.581z"/> <path fill="#CAF5FF" d="M928.438,582.825c0,2.15,1.74,3.893,3.887,3.893h54.482c2.15,0,3.896-1.742,3.896-3.893l0,0 c0-2.145-1.746-3.895-3.896-3.895h-54.482C930.178,578.931,928.438,580.681,928.438,582.825L928.438,582.825z"/> <path fill="#FFD54F" d="M900.414,582.825c0-5.447,4.414-9.863,9.863-9.863c5.439,0,9.854,4.416,9.854,9.863 c0,5.449-4.414,9.861-9.854,9.861C904.828,592.687,900.414,588.274,900.414,582.825z"/> <path fill="#FFD54F" d="M872.395,582.825c0-5.447,4.42-9.863,9.863-9.863c5.438,0,9.859,4.416,9.859,9.863 c0,5.449-4.422,9.861-9.859,9.861C876.814,592.687,872.395,588.274,872.395,582.825z"/> <circle fill="#B9CFEF" cx="854.235" cy="582.825" r="9.858"/> <path fill="#FFD54F" d="M816.363,582.825c0-5.447,4.408-9.863,9.848-9.863c5.447,0,9.859,4.416,9.859,9.863 c0,5.449-4.412,9.861-9.859,9.861C820.771,592.687,816.363,588.274,816.363,582.825z"/> <path fill="#CAF5FF" d="M695.463,582.825c0-5.447,4.414-9.863,9.859-9.863c5.439,0,9.855,4.416,9.855,9.863 c0,5.449-4.416,9.861-9.855,9.861C699.877,592.687,695.463,588.274,695.463,582.825z"/> </g> <g> <path fill="#3E5E9E" d="M619.197,686.606c0,6.875,5.572,12.451,12.445,12.451h299.91c6.883,0,12.459-5.576,12.459-12.451 v-41.514c0-6.879-5.576-12.449-12.459-12.449h-299.91c-6.873,0-12.445,5.57-12.445,12.449V686.606z"/> <path fill="#CAF5FF" d="M871.889,665.847c0,2.15,1.74,3.889,3.889,3.889h54.479c2.15,0,3.898-1.738,3.898-3.889l0,0 c0-2.15-1.748-3.889-3.898-3.889h-54.479C873.629,661.958,871.889,663.696,871.889,665.847L871.889,665.847z"/> <path fill="#FFD54F" d="M843.865,665.847c0-5.443,4.412-9.857,9.863-9.857c5.439,0,9.854,4.414,9.854,9.857 c0,5.445-4.414,9.857-9.854,9.857C848.277,675.704,843.865,671.292,843.865,665.847z"/> <path fill="#FFD54F" d="M815.846,665.847c0-5.443,4.418-9.857,9.863-9.857c5.438,0,9.859,4.414,9.859,9.857 c0,5.445-4.422,9.857-9.859,9.857C820.264,675.704,815.846,671.292,815.846,665.847z"/> <circle fill="#B9CFEF" cx="797.687" cy="665.847" r="9.858"/> <path fill="#FFD54F" d="M759.814,665.847c0-5.443,4.408-9.857,9.85-9.857c5.445,0,9.857,4.414,9.857,9.857 c0,5.445-4.412,9.857-9.857,9.857C764.223,675.704,759.814,671.292,759.814,665.847z"/> <path fill="#CAF5FF" d="M638.914,665.847c0-5.443,4.414-9.857,9.859-9.857c5.439,0,9.854,4.414,9.854,9.857 c0,5.445-4.414,9.857-9.854,9.857C643.328,675.704,638.914,671.292,638.914,665.847z"/> </g> <g> <path fill="#3E5E9E" d="M619.197,769.624c0,6.877,5.572,12.449,12.445,12.449h299.91c6.883,0,12.459-5.572,12.459-12.449 v-41.512c0-6.875-5.576-12.453-12.459-12.453h-299.91c-6.873,0-12.445,5.578-12.445,12.453V769.624z"/> <path fill="#CAF5FF" d="M871.889,748.868c0,2.152,1.74,3.893,3.889,3.893h54.479c2.15,0,3.898-1.74,3.898-3.893l0,0 c0-2.148-1.748-3.889-3.898-3.889h-54.479C873.629,744.979,871.889,746.72,871.889,748.868L871.889,748.868z"/> <path fill="#FFD54F" d="M843.865,748.868c0-5.445,4.412-9.859,9.863-9.859c5.439,0,9.854,4.414,9.854,9.859 c0,5.439-4.414,9.857-9.854,9.857C848.277,758.726,843.865,754.308,843.865,748.868z"/> <path fill="#FFD54F" d="M815.846,748.868c0-5.445,4.418-9.859,9.863-9.859c5.438,0,9.859,4.414,9.859,9.859 c0,5.439-4.422,9.857-9.859,9.857C820.264,758.726,815.846,754.308,815.846,748.868z"/> <path fill="#B9CFEF" d="M787.828,748.868c0-5.445,4.414-9.859,9.859-9.859s9.857,4.414,9.857,9.859 c0,5.439-4.412,9.857-9.857,9.857S787.828,754.308,787.828,748.868z"/> <path fill="#FFD54F" d="M759.814,748.868c0-5.445,4.408-9.859,9.85-9.859c5.445,0,9.857,4.414,9.857,9.859 c0,5.439-4.412,9.857-9.857,9.857C764.223,758.726,759.814,754.308,759.814,748.868z"/> <path fill="#CAF5FF" d="M638.914,748.868c0-5.445,4.414-9.859,9.859-9.859c5.439,0,9.854,4.414,9.854,9.859 c0,5.439-4.414,9.857-9.854,9.857C643.328,758.726,638.914,754.308,638.914,748.868z"/> </g> </g> </g> <g> <path fill="#FF6E40" d="M998.766,479.353c3.934,13.148-18.723,24.533-31.08,30.309s-57.414,21.072-57.414,21.072l-3.779-13.238 c0,0,42.902-27.654,53.078-34.127C969.744,476.896,994.834,466.216,998.766,479.353z"/> <g> <path fill="#FF9E80" d="M921.168,454.075c7.363-8.188,11.811-4.521,27.375-0.879c15.568,3.641,26.219,6.646,36.84,10.852 c10.619,4.209,15.844,14.697,12.586,22.156c-3.26,7.459-11.4,10.303-29.322,6.16c-17.92-4.146-37.584-7.736-41.523-10.225 S906.371,470.53,921.168,454.075z"/> <path fill="#B9CFEF" d="M962.842,495.274l-35.66-9.51c-10.82-2.852-17.279-13.934-14.428-24.752l0,0 c2.852-10.818,13.934-17.279,24.752-14.428l35.662,9.51L962.842,495.274z"/> </g> <polygon fill="#FF9E80" points="894.242,858.011 894.012,852.993 889.6,830.157 868.643,830.157 876.543,852.993 "/> <path fill="#0F2A44" d="M876.543,852.993c0,0-17.881,14.266-23.992,16.18c-6.105,1.912-9.268,1.568-9.219,6.951l36.969-0.33 l3.281-2.494l3.744,2.43l12.25-0.109c0,0-0.211-13.543-5.564-22.627H876.543z"/> <polygon fill="#FF9E80" points="951.225,858.011 950.994,852.993 946.582,830.157 925.627,830.157 933.525,852.993 "/> <path fill="#0F2A44" d="M933.525,852.993c0,0-17.881,14.266-23.988,16.18c-6.109,1.912-9.271,1.568-9.223,6.951l36.969-0.33 l3.281-2.494l3.744,2.43l12.252-0.109c0,0-0.211-13.543-5.566-22.627H933.525z"/> <path fill="#512DA8" d="M1109.447,753.444"/> <g> <path fill="#2885A5" d="M970.154,599.187c0-25.199-5.68-36.139-23.887-49.129l-73.342,12.266l-4.65,5.951 c0,0-30.252,102.27-39.791,134.152c-9.535,31.881,1.074,46.029,5.32,64.42c4.246,18.393,34.842,87.945,34.842,87.945 l37.152-11.73c0,0-30.174-108.514-30.174-118.332c0-9.814,45.432-116.627,45.432-116.627l-10.785,2.793 c0,0-7.402,87.572-9.857,104.764c-2.455,17.193-2.334,20.91,2.607,43.662s21.51,93.672,21.51,93.672l36.188-7.084 L940.93,725.987C940.93,725.987,970.154,631.452,970.154,599.187z"/> </g> <rect x="866.854" y="551.162" transform="matrix(0.9863 -0.1649 0.1649 0.9863 -79.2963 157.5671)" fill="#18677C" width="84.574" height="10.208"/> <path fill="#FF9E80" d="M897.096,417.663c4.207,11.973-6.863,23.48-18.834,27.688l0,0c-11.971,4.209-20.313-0.475-24.52-12.445 l-4.178-11.887c-4.207-11.977,2.082-25.09,14.053-29.299l0,0c11.973-4.211,25.09,2.082,29.299,14.055L897.096,417.663z"/> <path fill="#FF6E40" d="M858.148,426.163c0.992,2.828,7.213,5.814,10.045,4.818c2.826-0.992,1.189-5.59,0.195-8.418 c-0.994-2.83-4.092-4.316-6.922-3.322C858.641,420.237,857.154,423.335,858.148,426.163z"/> <path fill="#FF6E40" d="M904.92,454.019l-25.408,8.932c-0.52-2.109-1.383-5.938-2.281-9.924 c-1.537-6.906-3.475-18.732-3.475-18.732l19.752-6.943l3.33,7.783L904.92,454.019z"/> <path fill="#0F2A44" d="M901.725,423.231c0,0,1.834-9.689-1.316-18.652c-3.152-8.965-14.033-25.586-39.547-16.617 c-14.268,5.016-22.961,13.313-20.609,19.99c1.732,4.938,4.555,8.98,13.699,5.768c9.145-3.215,8.512,8.506,12.412,14.445 c8.102,12.344,18.072,10.775,25.91,8.02C898.76,433.905,901.244,427.856,901.725,423.231z"/> <path fill="#B9CFEF" d="M944.723,460.216c0.451,4.518,1.195,13.74,2.008,24.129c1.576,20.215,3.408,44.814,3.863,47.557 c0.695,4.152,6.41,16.004-2.586,17.508l-66.949,11.193c-15.572,2.607-18.893-0.225-21.084-6.969 c-2.199-6.74-16.854-70.982-18.154-78.766c-1.303-7.791,1.52-14.307,9.824-15.697c8.305-1.389,48.617-8.131,48.617-8.131 s19.893-3.326,28.367-4.746C937.111,444.878,943.389,446.923,944.723,460.216z"/> <path fill="#FF9E80" d="M865.637,475.927c8.162,7.393,2.318,20.117-1.377,35.672c-3.695,15.553-13.053,38.635-17.295,49.24 s-12.701,12.848-20.152,9.563c-7.445-3.285-7.109-9.598-2.902-27.508c4.207-17.906,11.139-57.178,13.643-61.109 C840.057,477.856,849.236,461.073,865.637,475.927z"/> <path fill="#B9CFEF" d="M874.119,473.397c0.867,2.887,1.098,6.002,0.564,9.176l-4.209,24.51l-2.035,11.861l-23.686-3.99 l-16.27-2.744l6.242-36.379c1.865-11.029,12.314-18.465,23.348-16.602C865.939,460.554,871.975,466.245,874.119,473.397z"/> <polygon fill="#B9CFEF" points="905.238,450.21 901.484,445.317 882.059,448.567 876.873,449.435 875.787,455.136 "/> <path fill="#FF9E80" d="M849.9,554.499c-5.078,13.232-7.223,17.107-15.699,22.414c-8.477,5.303-66.225,26.922-66.225,26.922 l-7.066-13.732l66.953-47.105L849.9,554.499z"/> <path fill="#FF9E80" d="M760.91,590.103c0,0-4.82-1.678-9.33,0c-4.51,1.68-12.865,2.211-15.385,2.211 c-2.521,0-1.656,4.982,2.785,5.305c4.439,0.322,8.506,0.971,9.24,2.244s6.939,1.273,6.939,1.273L760.91,590.103z"/> <path fill="#FF9E80" d="M760.91,590.103h-6.988l-5.701,9.76c0,0,0,14.732,0,18.445c0,3.717,2.871,5.836,4.465,5.836 c1.592,0,1.879-1.414,1.879-1.414s2.131,2.83,4.9,2.83s3.652-4.246,3.652-4.246s4.619-1.264,4.619-2.664s0-2.992,0-2.992 s3.025,0.572,3.025-1.748c0-2.318,0-11.121,0-11.121L760.91,590.103z"/> </g> <g> <path fill="#CAF5FF" d="M431.561,389.356c0,2.463-1.998,4.459-4.459,4.459H68.855c-2.463,0-4.457-1.996-4.457-4.459V227.817 c0-2.461,1.994-4.459,4.457-4.459h358.246c2.461,0,4.459,1.998,4.459,4.459V389.356z"/> <path fill="#CAF5FF" d="M282.49,380.595c1.646,1.646,1.646,4.318,0,5.965l-31.527,31.527c-1.646,1.648-4.318,1.646-5.967,0 l-31.525-31.527c-1.648-1.646-1.648-4.316,0-5.965L245,349.067c1.645-1.646,4.316-1.646,5.963,0L282.49,380.595z"/> <path fill="none" stroke="#244677" stroke-width="2.2294" stroke-miterlimit="10" d="M64.398,283.663 c0,0,15.695-18.689,32.371-18.689c16.674,0,37.576,12.66,60.564,12.66c22.992,0,168.346,0,193.203,0s48.842-5.762,81.023-5.762"/> <path fill="none" stroke="#2885A5" stroke-width="2.2294" stroke-miterlimit="10" d="M64.398,292.763c0,0,31.955-9.1,61.678-9.1 c29.725,0,33.828,9.1,75.801,9.1c41.971,0,169.65,0,186.262,0s35.303-4.541,43.422-4.541"/> <path fill="#244677" d="M166.947,258.272c0,2.461-1.996,4.459-4.459,4.459h-18.205c-2.461,0-4.459-1.998-4.459-4.459v-18.207 c0-2.463,1.998-4.459,4.459-4.459h18.205c2.463,0,4.459,1.996,4.459,4.459V258.272z"/> <path fill="#244677" d="M266.641,258.272c0,2.461-1.996,4.459-4.459,4.459h-18.205c-2.463,0-4.459-1.998-4.459-4.459v-18.207 c0-2.463,1.996-4.459,4.459-4.459h18.205c2.463,0,4.459,1.996,4.459,4.459V258.272z"/> <path fill="#244677" d="M366.334,258.272c0,2.461-1.998,4.459-4.459,4.459H343.67c-2.463,0-4.459-1.998-4.459-4.459v-18.207 c0-2.463,1.996-4.459,4.459-4.459h18.205c2.461,0,4.459,1.996,4.459,4.459V258.272z"/> <circle fill="none" stroke="#2885A5" stroke-width="2.2294" stroke-miterlimit="10" cx="103.248" cy="338.983" r="22.129"/> <path fill="#2885A5" d="M196.303,310.091c0,2.373-1.924,4.297-4.297,4.297h-44.912c-2.371,0-4.297-1.924-4.297-4.297l0,0 c0-2.375,1.926-4.295,4.297-4.295h44.912C194.379,305.796,196.303,307.716,196.303,310.091L196.303,310.091z"/> <path fill="#244677" d="M196.303,324.749c0,2.373-1.924,4.297-4.297,4.297h-44.912c-2.371,0-4.297-1.924-4.297-4.297l0,0 c0-2.373,1.926-4.297,4.297-4.297h44.912C194.379,320.452,196.303,322.376,196.303,324.749L196.303,324.749z"/> <path fill="#2885A5" d="M196.303,353.364c0,2.371-1.924,4.297-4.297,4.297h-44.912c-2.371,0-4.297-1.926-4.297-4.297l0,0 c0-2.373,1.926-4.299,4.297-4.299h44.912C194.379,349.065,196.303,350.991,196.303,353.364L196.303,353.364z"/> <path fill="#244677" d="M196.303,368.021c0,2.375-1.924,4.299-4.297,4.299h-44.912c-2.371,0-4.297-1.924-4.297-4.299l0,0 c0-2.371,1.926-4.295,4.297-4.295h44.912C194.379,363.726,196.303,365.649,196.303,368.021L196.303,368.021z"/> <path fill="#2885A5" d="M238.422,308.442c0-2.461,1.996-4.459,4.459-4.459h169.672c2.461,0,4.459,1.998,4.459,4.459v64.141 c0,2.463-1.998,4.459-4.459,4.459H242.881c-2.463,0-4.459-1.996-4.459-4.459V308.442z"/> <polyline fill="none" stroke="#FFCE54" stroke-width="2.2294" stroke-linecap="round" stroke-linejoin="round" stroke-miterlimit="10" points=" 238.422,354.663 247.855,338.983 251.84,345.878 258.484,320.452 264.258,338.983 270.963,335.11 278.391,358.013 280.535,337.396 287.555,353.364 300.018,326.776 309.258,353.364 311.486,340.513 315.574,347.593 323.824,318.476 327.717,337.396 333.73,331.481 342.998,360.692 344.717,337.396 350.537,344.485 356.896,324.095 366.334,340.513 372.797,333.026 378.738,354.663 384.686,337.396 389.994,346.595 397.691,327.956 405.494,346.343 405.494,333.493 417.012,345.599 "/> <g> <path fill="#244677" d="M92.656,332.419v11.986H90.43v-10.121h-2.533v-1.865H92.656z"/> <path fill="#244677" d="M103.721,342.522v1.883h-8.838v-1.49l4.76-4.521c0.537-0.512,0.9-0.961,1.09-1.344 c0.188-0.383,0.281-0.762,0.281-1.137c0-0.563-0.188-0.99-0.566-1.285c-0.375-0.297-0.93-0.447-1.66-0.447 c-1.223,0-2.158,0.418-2.809,1.25l-1.559-1.197c0.469-0.627,1.1-1.117,1.893-1.465s1.682-0.523,2.662-0.523 c1.303,0,2.342,0.309,3.117,0.928c0.777,0.615,1.166,1.455,1.166,2.518c0,0.648-0.139,1.26-0.41,1.83 c-0.275,0.572-0.801,1.223-1.576,1.953l-3.203,3.049H103.721z"/> <path fill="#244677" d="M105.518,344.124c-0.275-0.27-0.412-0.609-0.412-1.02c0-0.424,0.135-0.764,0.402-1.027 c0.27-0.264,0.604-0.395,1.002-0.395c0.4,0,0.734,0.131,1.002,0.395s0.402,0.604,0.402,1.027c0,0.41-0.137,0.75-0.41,1.02 c-0.275,0.266-0.605,0.402-0.994,0.402S105.791,344.39,105.518,344.124z"/> <path fill="#244677" d="M117.162,338.497c0.582,0.617,0.873,1.389,0.873,2.313c0,0.695-0.176,1.328-0.531,1.9 c-0.354,0.57-0.887,1.025-1.6,1.361c-0.715,0.336-1.586,0.506-2.613,0.506c-0.855,0-1.68-0.123-2.473-0.369 c-0.795-0.244-1.473-0.586-2.031-1.02l0.959-1.729c0.436,0.365,0.961,0.654,1.584,0.865s1.264,0.316,1.928,0.316 c0.787,0,1.406-0.164,1.857-0.488c0.449-0.326,0.676-0.768,0.676-1.328c0-0.559-0.213-0.994-0.641-1.309 c-0.43-0.314-1.082-0.473-1.961-0.473h-1.096v-1.523l2.723-3.236h-5.447v-1.865h8.17v1.49l-2.91,3.459 C115.734,337.503,116.58,337.882,117.162,338.497z"/> </g> </g> <g> <g> <g> <path fill="#2885A5" d="M316.589,876.124c-0.209-1.647-21.128-164.172-24.841-188.161 c-4.071-26.337-6.421-28.821-15.582-28.821h-27.554c-9.16,0-11.51,2.484-15.584,28.821 c-3.71,23.989-24.629,186.514-24.841,188.161h-10.43c0.215-1.647,21.236-165.636,24.966-189.753 c3.381-21.861,5.826-37.656,25.889-37.656h27.554c20.063,0,22.51,15.795,25.89,37.656 c3.729,24.117,24.752,188.105,24.964,189.753H316.589z"/> </g> <polygon fill="#155E72" points="512.283,876.124 525.691,876.124 510.3,641.856 489.944,641.856 "/> <polygon fill="#155E72" points="393.284,876.124 406.689,876.124 391.302,641.856 370.945,641.856 "/> <g> <path fill="#193C5E" d="M265.927,666.395c1.458,15.632-10.029,28.303-25.661,28.303h-55.357 c-15.63,0-29.488-12.671-30.946-28.303l-7.07-75.67c-1.463-15.631,10.024-28.303,25.657-28.303h55.356 c15.631,0,29.488,12.672,30.949,28.303L265.927,666.395z"/> <path fill="#0F2A44" d="M276.89,666.395c1.459,15.632-10.028,28.303-25.659,28.303h-55.356 c-15.632,0-29.488-12.671-30.948-28.303l-7.071-75.67c-1.462-15.631,10.028-28.303,25.658-28.303h55.357 c15.632,0,29.487,12.672,30.947,28.303L276.89,666.395z"/> </g> <path fill="#0F2A44" d="M273.526,699.643c0-6.891-5.586-12.477-12.476-12.477h-88.731c-6.89,0-12.477,5.586-12.477,12.477l0,0 c0,6.891,5.587,12.477,12.477,12.477h88.731C267.94,712.119,273.526,706.533,273.526,699.643L273.526,699.643z"/> <polygon fill="#9DDCED" points="286.378,855.715 304.86,855.715 360.06,652.905 308.475,650.873 "/> <path fill="#0F2A44" d="M281.191,876.124h64.807c0-8.938-4.949-11.8-14.321-13.617c-1.381-0.265-2.816-1.28-4.268-1.28 c-0.01,0-0.01,0-0.01,0c-8.416-2.979-17.547-7.583-21.363-11.398l-18.865-1.063c0,3.076-2.732,10.322-4.502,17.391l-0.011,0.216 C281.814,869.753,281.191,873.144,281.191,876.124z"/> <path fill="#193C5E" d="M222.231,644.872c0,54.71,84.375,39.124,84.375,39.124l-21.348,158.607l43.719-0.38 c0,0,34.167-127.138,50.701-183.558c2.838-9.688-2.056-30.008-29.154-27.936c-18.595,1.42-62.862,9.16-62.862,9.16 s3.38-15.098-19.146-54.116l-40.879-3.597L222.231,644.872z"/> <polygon fill="#9DDCED" points="246.633,855.715 265.114,855.715 320.316,652.905 268.73,650.873 "/> <path fill="#0F2A44" d="M240.952,876.124h64.805c0-8.938-4.948-11.8-14.321-13.617c-1.381-0.265-2.816-1.28-4.271-1.28 c-0.007,0-0.007,0-0.007,0c-8.416-2.979-17.546-7.583-21.364-11.398l-18.412-1.063c0,3.076-3.185,10.322-4.957,17.391 l-0.008,0.216C241.573,869.753,240.952,873.144,240.952,876.124z"/> <path fill="#244677" d="M209.31,562.422l-7.988,20.15c0,0-22.205,39.482-22.205,75.794c0,48.663,84.375,25.63,84.375,25.63 l-19.5,158.797l43.719-0.38c0,0,32.32-127.327,48.854-183.747c2.838-9.688-2.057-30.008-29.152-27.936 c-18.6,1.42-62.865,9.16-62.865,9.16v-77.469H209.31z"/> <path fill="#FF9E80" d="M278.85,589.344c-1.854-7.907-5.558-23.857-9.563-48.708c-4.004-24.851-1.183-32.181,9.859-35.259 c21.58-6.013,24.268,20.822,25.705,31.767c1.442,10.942,3.824,45.527,3.824,45.527c1.331,11.289-2.305,21.515-12.555,23.575 C285.867,608.307,280.374,595.839,278.85,589.344z"/> <path fill="#9DDCED" d="M309.247,555.813l-5.71-38.497c-1.697-11.677-12.536-19.766-24.214-18.068l0,0 c-11.674,1.696-19.766,12.538-18.069,24.214l5.71,38.498L309.247,555.813z"/> <path fill="#FF9E80" d="M224.547,504.99l28.335,1.923c-0.064-2.292-0.266-6.425-0.478-10.729 c-0.38-7.454-0.82-15.438-0.82-15.438l-22.951-6.07l-1.19,8.847L224.547,504.99z"/> <path fill="#FF6E40" d="M227.442,483.522c2.131,5.185,7.426,11.767,20.636,12.662c1.564,0.107,3.003,0.106,4.326-0.001 c-0.38-7.454-0.82-15.438-0.82-15.438l-22.951-6.07L227.442,483.522z"/> <path fill="#0D3153" d="M275.782,443.797c0,0,6.398,16.021-5.305,22.637l-6.697-22.19L275.782,443.797z"/> <path fill="#FF9E80" d="M224.067,463.723c-2.245,13.19,11.31,23.184,24.502,25.428l0,0c13.192,2.244,21.023-4.109,23.27-17.299 l2.229-13.104c2.244-13.191-6.628-25.704-19.82-27.948l0,0c-13.193-2.245-25.706,6.629-27.952,19.821L224.067,463.723z"/> <path fill="#0D3153" d="M220.246,470.332c0,0-3.631-9.744-1.95-19.621c1.682-9.877,10.033-29.091,38.15-24.307 c15.721,2.674,23.83,8.115,22.767,16.732c-0.497,4.03-3.603,7.133-7.603,6.216c-5.142-1.179-9.5,5.161-21.834,4.917 c-4.215-0.083-7.538-4.626-9.853-1.834c-4.78,5.768-1.962,7.637-3.316,15.598c-1.356,7.964-5.401,12.252-9.132,11.616 S221.568,475.055,220.246,470.332z"/> <path fill="#FF9E80" d="M228.71,460.218c-0.53,3.114,3.678,9.052,6.797,9.583c3.114,0.529,3.958-4.547,4.487-7.664 c0.531-3.116-1.565-6.072-4.682-6.602C232.195,455.004,229.24,457.1,228.71,460.218z"/> <path fill="#CAF5FF" d="M183.267,516.204c-0.02,4.774,0.12,14.499,0.309,25.446c0.373,21.299,0.913,47.203,0.705,50.133 c-0.314,4.44-5.14,17.76,4.48,17.76h71.579c16.649,0,19.859-3.52,21.492-10.917c1.634-7.394,10.611-76.761,11.2-85.082 c0.589-8.328-3.036-14.617-11.915-14.617c-8.88,0-51.979,0-51.979,0s-21.27,0-30.331,0 C189.739,498.927,183.335,502.146,183.267,516.204z"/> <path fill="#9DDCED" d="M186.938,591.783c0,4.44-3.884,17.76,5.736,17.76h17.971c-5.738-28.464,0-65.544,0-65.544l-27.959-2.349 C184.565,562.949,186.938,588.854,186.938,591.783z"/> <path fill="#FF9E80" d="M160.005,582.836c1.582-7.966,4.807-24.021,11.437-48.303c6.634-24.283,12.233-29.789,23.562-28.023 c22.133,3.45,13.48,28.993,10.266,39.552c-3.215,10.561-15.349,43.034-15.349,43.034c-3.46,10.828-10.997,18.637-21.184,16.271 C158.549,603.001,158.705,589.38,160.005,582.836z"/> <path fill="#FF9E80" d="M170.705,605.79c14.37,0,75.67,0,75.67,0v-10.969l-69.849-15.34L170.705,605.79z"/> <polygon fill="#CAF5FF" points="223.415,498.928 226.468,493.188 242.173,493.188 244.884,498.928 247.236,493.188 252.784,493.188 254.903,498.928 246.955,503.518 244.884,499.949 241.51,503.518 "/> <path fill="#CAF5FF" d="M204.429,563.877l11.613-37.146c3.553-11.251-2.687-23.251-13.938-26.806l0,0 c-11.249-3.553-23.253,2.686-26.807,13.938l-11.612,37.147L204.429,563.877z"/> <path fill="#FF9E80" d="M246.375,594.821c0,0,12.187-4.729,16.915-5.456c4.731-0.727,8.611,2.547,8.611,2.547 s3.881-0.932,5.578,2.008c1.698,2.94,3.518,8.905,3.518,10.481s-0.926,3.209-2.828,3.209s-2.755-1.478-2.755-1.478 s-6.845,1.872-10.091,0.936c-3.244-0.936-4.618-1.729-4.618-1.729s-10.409,3.661-15.968,0.45L246.375,594.821z"/> <path fill="#FF9E80" d="M296.12,606.474c11.671,0,22.105,0,26.835,0s9.814-13.802-2.183-18.333 c-11.999-4.531-25.284-5.567-28.558-2.293C288.938,589.123,281.538,606.474,296.12,606.474z"/> <path fill="#FF9E80" d="M305.492,597.489c0-4.729,3.646-11.279,9.371-11.279c5.727,0,7.147,2.462,7.147,2.462 s7.966-3.767,12.949,1.216c4.982,4.983,3.274,16.586,0,16.586c-3.273,0-21.828,0-21.828,0S305.492,607.312,305.492,597.489z"/> <g> <path fill="#2885A5" d="M253.623,876.124c-0.212-1.647-21.217-164.172-24.927-188.161 c-4.075-26.337-6.422-28.821-15.583-28.821H185.56c-9.16,0-11.512,2.484-15.584,28.821 c-3.711,23.989-24.631,186.514-24.841,188.161h-10.429c0.212-1.647,21.234-165.636,24.964-189.753 c3.381-21.861,5.826-37.656,25.89-37.656h27.554c20.064,0,22.507,15.795,25.888,37.656 c3.729,24.117,24.754,188.105,24.965,189.753H253.623z"/> </g> <g> <g> <g> <rect x="26.556" y="605.744" fill="#18677C" width="379.447" height="14.012"/> </g> <g> <rect x="150.192" y="605.744" fill="#2885A5" width="379.445" height="14.012"/> </g> <rect x="32.122" y="619.756" fill="#155E72" width="367.072" height="22.101"/> <rect x="155.757" y="619.756" fill="#18677C" width="367.074" height="22.101"/> </g> <polygon fill="#155E72" points="38.825,876.124 25.418,876.124 40.808,641.856 61.165,641.856 "/> <polygon fill="#155E72" points="157.825,876.124 144.418,876.124 159.808,641.856 180.165,641.856 "/> </g> </g> <g> <path fill="#244677" d="M262.304,528.162c0.447-2.813,3.09-5.094,5.903-5.094h105.656c2.812,0,4.729,2.28,4.282,5.094 l-10.33,64.879c-0.448,2.813-3.091,5.094-5.904,5.094H256.256c-2.813,0-4.73-2.281-4.282-5.094L262.304,528.162z"/> <path fill="#3E5E9E" d="M265.529,528.162c0.448-2.813,3.091-5.094,5.904-5.094h105.655c2.813,0,4.729,2.28,4.282,5.094 l-10.329,64.879c-0.448,2.813-3.092,5.094-5.904,5.094H259.481c-2.813,0-4.73-2.281-4.282-5.094L265.529,528.162z"/> <path fill="#244677" d="M221.185,605.063c0,0.401,0.324,0.727,0.726,0.727h142.499c0.402,0,0.729-0.325,0.729-0.727v-6.2 c0-0.403-0.326-0.729-0.729-0.729H221.91c-0.401,0-0.726,0.325-0.726,0.729V605.063z"/> </g> </g> </g> </g> </svg>